<svg viewBox="0 0 32 32" xmlns="http://www.w3.org/2000/svg"><path d="m7.5566406 5.0058594c-.657.028-5.6674375.4533281-6.0234375.4863281-.356.029-.7485781.1936406-.3925781 1.0566406s6.0450781 13.4025779 6.2050781 13.7675779c.159.364.5721094.95875 1.5371094.71875.989-.244 4.4199215-1.161062 6.2949215-1.664062.989 1.836 3.009766 5.557844 3.384766 6.089844.497.713999.843422.592515 1.607422.353515.6-.187 9.356-3.407312 9.75-3.570312.394-.168.63614-.282453.36914-.689453-.196999-.297001-2.507796-3.462094-3.716796-5.121094.83-.225 3.777797-1.026188 4.091796-1.117188.369001-.097.42075-.277812.21875-.507812-.196999-.23-2.942781-3.743891-3.425781-4.337891-.483-.5939999-.722578-.4902655-1.017578-.447265-.3.042999-3.772781.641984-4.175781.708984-.403.072-.656203.234844-.408203.589844.22.316 2.503765 3.630375 3.009765 4.359375l-9.080078 2.222656-7.2246091-12.3437501c-.286-.436-.3479063-.5886875-1.0039063-.5546875zm-.1132812.8574218c.169-.0099999.1499375.0278125.2109375.1328126 0 0 6.6653441 11.7647032 6.7773441 11.9707032.122.206.053312.268969-.054688.292969s-5.1947967 1.269031-5.4667968 1.332031c-.272.062-.2716874.0335-.3046874-.0625s-6.0449063-12.7843595-6.1289063-12.9433595c-.084-.158-.08-.2832031 0-.2832031s4.8027969-.4304532 4.9667969-.4394532zm19.3281246 4.9824218c.067375.015625.138157.066094.222657.183594.169.235 2.465687 3.211172 2.554687 3.326172.084.111-.066672.178562-.263672.226562-.197.043-3.449218.867188-3.449218.867188l-2.658204-3.728516c-.075-.11-.135265-.216234.052735-.240234.187-.024 3.205797-.586235 3.341797-.615235.068-.017.131843-.035156.199218-.019531zm-1.24414 5.771485c.06275.007124.115547.051562.185547.164062.137.231 2.925859 4.100469 3.005859 4.230469.08.129.162297.21564-.095703.30664-.253.096-8.608578 2.976829-8.767578 3.048829-.164.071999-.292047.095203-.498047-.216797s-2.923828-5.119141-2.923828-5.119141l8.847656-2.353516c.11-.036.183344-.067671.246094-.060546z"/></svg>